<svg width="22" height="33" viewBox="0 0 22 33" fill="none" xmlns="http://www.w3.org/2000/svg">
<g id="Group">
<path id="Vector" d="M18.9334 0.737549H3.02932C1.72644 0.737549 0.670654 1.7933 0.670654 3.09618V30.0073C0.670654 31.3102 1.72644 32.366 3.02932 32.366H18.9334C20.2363 32.366 21.2921 31.3102 21.2921 30.0073V3.09618C21.2921 1.81576 20.2138 0.737549 18.9334 0.737549Z" fill="white"/>
<path id="Vector_2" d="M20.1466 4.53397H1.79395V26.7278H20.1466V4.53397Z" fill="#404040"/>
<g id="Group_2">
<g id="Group_3">
<path id="Vector_3" d="M14.7328 2.15247H7.20758C6.91556 2.15247 6.646 2.39956 6.646 2.71405C6.646 3.02854 6.89309 3.27564 7.20758 3.27564H14.7328C15.0249 3.27564 15.2944 3.02854 15.2944 2.71405C15.2944 2.42203 15.0473 2.15247 14.7328 2.15247Z" fill="#6639A6"/>
</g>
</g>
<path id="Vector_4" d="M9.18457 29.4009C9.18457 28.4125 9.99326 27.5814 10.9816 27.5814C11.97 27.5814 12.8012 28.3901 12.8012 29.4009C12.8012 30.3893 11.9925 31.198 10.9816 31.198C9.99326 31.2204 9.18457 30.4118 9.18457 29.4009Z" fill="#6639A6"/>
</g>
</svg>
