<svg width="36" height="36" viewBox="0 0 36 36" fill="none" xmlns="http://www.w3.org/2000/svg">
<rect width="36" height="36" rx="12" fill="#F6F6F6"/>
<path d="M14.5477 15.1259V24.1538H12.1363V15.1259H14.5477ZM11.9861 12.7729C11.9861 12.4225 12.1085 12.1332 12.3533 11.9052C12.598 11.6771 12.9262 11.5631 13.3378 11.5631C13.7439 11.5631 14.0693 11.6771 14.314 11.9052C14.5643 12.1332 14.6895 12.4225 14.6895 12.7729C14.6895 13.1234 14.5643 13.4126 14.314 13.6407C14.0693 13.8687 13.7439 13.9828 13.3378 13.9828C12.9262 13.9828 12.598 13.8687 12.3533 13.6407C12.1085 13.4126 11.9861 13.1234 11.9861 12.7729ZM19.2282 17.0533V24.1538H16.8252V15.1259H19.078L19.2282 17.0533ZM18.8777 19.3228H18.2269C18.2269 18.6553 18.3131 18.0545 18.4856 17.5205C18.658 16.981 18.9 16.5221 19.2115 16.1438C19.523 15.76 19.8929 15.468 20.3212 15.2677C20.7551 15.0619 21.239 14.959 21.773 14.959C22.1958 14.959 22.5824 15.0202 22.9328 15.1426C23.2832 15.2649 23.5836 15.4596 23.8339 15.7266C24.0898 15.9936 24.2845 16.3468 24.418 16.7863C24.557 17.2257 24.6266 17.7625 24.6266 18.3966V24.1538H22.2069V18.3883C22.2069 17.9878 22.1513 17.6763 22.04 17.4538C21.9288 17.2313 21.7647 17.0755 21.5477 16.9865C21.3364 16.892 21.0749 16.8447 20.7634 16.8447C20.4408 16.8447 20.1599 16.9087 19.9207 17.0366C19.6871 17.1645 19.4924 17.3425 19.3366 17.5706C19.1865 17.7931 19.0724 18.0545 18.9945 18.3549C18.9167 18.6553 18.8777 18.9779 18.8777 19.3228Z" fill="#2A2F2F"/>
</svg>
