<svg width="20" height="20" viewBox="0 0 20 20" fill="none" xmlns="http://www.w3.org/2000/svg">
<g id="message">
<path id="Icon" d="M6.66675 7.58333C6.25253 7.58333 5.91675 7.91912 5.91675 8.33333C5.91675 8.74755 6.25253 9.08333 6.66675 9.08333V7.58333ZM13.3334 9.08333C13.7476 9.08333 14.0834 8.74755 14.0834 8.33333C14.0834 7.91912 13.7476 7.58333 13.3334 7.58333V9.08333ZM6.66675 10.9167C6.25253 10.9167 5.91675 11.2525 5.91675 11.6667C5.91675 12.0809 6.25253 12.4167 6.66675 12.4167V10.9167ZM10.0001 12.4167C10.4143 12.4167 10.7501 12.0809 10.7501 11.6667C10.7501 11.2525 10.4143 10.9167 10.0001 10.9167V12.4167ZM2.57676 15.6517L2.91726 14.9834H2.91726L2.57676 15.6517ZM1.8484 14.9233L1.18015 15.2638H1.18015L1.8484 14.9233ZM18.1518 14.9233L18.82 15.2638V15.2638L18.1518 14.9233ZM17.4234 15.6517L17.7639 16.3199L17.7639 16.3199L17.4234 15.6517ZM17.4234 4.34832L17.7639 3.68007L17.7639 3.68007L17.4234 4.34832ZM18.1518 5.07668L18.82 4.73619V4.73619L18.1518 5.07668ZM2.57676 4.34832L2.91726 5.01658L2.57676 4.34832ZM1.8484 5.07668L2.51666 5.41717L1.8484 5.07668ZM5.66675 17.8333L6.11675 18.4333H6.11675L5.66675 17.8333ZM7.6223 16.3667L8.0723 16.9667L8.0723 16.9667L7.6223 16.3667ZM8.56921 15.8643L8.7131 16.6004H8.71311L8.56921 15.8643ZM8.16335 15.9996L7.83682 15.3244H7.83682L8.16335 15.9996ZM6.66675 9.08333H13.3334V7.58333H6.66675V9.08333ZM6.66675 12.4167H10.0001V10.9167H6.66675V12.4167ZM4.33341 4.91667H15.6667V3.41667H4.33341V4.91667ZM17.5834 6.83333V13.1667H19.0834V6.83333H17.5834ZM2.41675 13.1667V6.83333H0.916748V13.1667H2.41675ZM4.33342 15.0833C3.85433 15.0833 3.54012 15.0827 3.29983 15.0631C3.06829 15.0442 2.97217 15.0114 2.91726 14.9834L2.23627 16.3199C2.53788 16.4736 2.85338 16.5316 3.17768 16.5581C3.49322 16.5839 3.87908 16.5833 4.33342 16.5833V15.0833ZM0.916748 13.1667C0.916748 13.621 0.916165 14.0069 0.941946 14.3224C0.968442 14.6467 1.02647 14.9622 1.18015 15.2638L2.51666 14.5828C2.48868 14.5279 2.45588 14.4318 2.43696 14.2003C2.41733 13.96 2.41675 13.6458 2.41675 13.1667H0.916748ZM2.91726 14.9834C2.74478 14.8955 2.60454 14.7553 2.51666 14.5828L1.18015 15.2638C1.41184 15.7185 1.78155 16.0882 2.23627 16.3199L2.91726 14.9834ZM17.5834 13.1667C17.5834 13.6458 17.5828 13.96 17.5632 14.2003C17.5443 14.4318 17.5115 14.5279 17.4835 14.5828L18.82 15.2638C18.9737 14.9622 19.0317 14.6467 19.0582 14.3224C19.084 14.0069 19.0834 13.621 19.0834 13.1667H17.5834ZM15.6667 16.5833C16.1211 16.5833 16.5069 16.5839 16.8225 16.5581C17.1468 16.5316 17.4623 16.4736 17.7639 16.3199L17.0829 14.9834C17.028 15.0114 16.9319 15.0442 16.7003 15.0631C16.46 15.0827 16.1458 15.0833 15.6667 15.0833V16.5833ZM17.4835 14.5828C17.3956 14.7553 17.2554 14.8955 17.0829 14.9834L17.7639 16.3199C18.2186 16.0882 18.5883 15.7185 18.82 15.2638L17.4835 14.5828ZM15.6667 4.91667C16.1458 4.91667 16.46 4.91725 16.7003 4.93688C16.9319 4.9558 17.028 4.9886 17.0829 5.01658L17.7639 3.68007C17.4623 3.52639 17.1468 3.46836 16.8225 3.44186C16.5069 3.41608 16.1211 3.41667 15.6667 3.41667V4.91667ZM19.0834 6.83333C19.0834 6.379 19.084 5.99314 19.0582 5.6776C19.0317 5.35329 18.9737 5.0378 18.82 4.73619L17.4835 5.41717C17.5115 5.47208 17.5443 5.5682 17.5632 5.79974C17.5828 6.04004 17.5834 6.35425 17.5834 6.83333H19.0834ZM17.0829 5.01658C17.2554 5.10446 17.3956 5.24469 17.4835 5.41718L18.82 4.73619C18.5883 4.28146 18.2186 3.91176 17.7639 3.68007L17.0829 5.01658ZM4.33341 3.41667C3.87908 3.41667 3.49322 3.41608 3.17768 3.44186C2.85338 3.46836 2.53788 3.52639 2.23627 3.68007L2.91726 5.01658C2.97217 4.9886 3.06829 4.9558 3.29983 4.93688C3.54012 4.91725 3.85433 4.91667 4.33341 4.91667V3.41667ZM2.41675 6.83333C2.41675 6.35425 2.41733 6.04004 2.43696 5.79974C2.45588 5.5682 2.48868 5.47208 2.51666 5.41717L1.18015 4.73619C1.02647 5.0378 0.968442 5.35329 0.941946 5.6776C0.916165 5.99314 0.916748 6.379 0.916748 6.83333H2.41675ZM2.23627 3.68007C1.78155 3.91176 1.41184 4.28146 1.18015 4.73619L2.51666 5.41717C2.60454 5.24469 2.74477 5.10446 2.91726 5.01658L2.23627 3.68007ZM4.25008 16.5V17.5H5.75008V16.5H4.25008ZM15.6667 15.0833H9.2223V16.5833H15.6667V15.0833ZM6.11675 18.4333L8.0723 16.9667L7.1723 15.7667L5.21675 17.2333L6.11675 18.4333ZM9.2223 15.0833C8.921 15.0833 8.67141 15.0801 8.42532 15.1282L8.71311 16.6004C8.78378 16.5865 8.86399 16.5833 9.2223 16.5833V15.0833ZM8.0723 16.9667C8.35895 16.7517 8.42505 16.7061 8.48988 16.6748L7.83682 15.3244C7.61109 15.4336 7.41335 15.5859 7.1723 15.7667L8.0723 16.9667ZM8.42532 15.1282C8.22154 15.1681 8.02375 15.234 7.83682 15.3244L8.48988 16.6748C8.56078 16.6405 8.63581 16.6155 8.7131 16.6004L8.42532 15.1282ZM4.25008 17.5C4.25008 18.4614 5.34764 19.0102 6.11675 18.4333L5.21675 17.2333C5.43649 17.0685 5.75008 17.2253 5.75008 17.5H4.25008ZM4.33342 16.5833C4.28739 16.5833 4.25008 16.546 4.25008 16.5H5.75008C5.75008 15.7176 5.11582 15.0833 4.33342 15.0833V16.5833Z" fill="#3C4242"/>
</g>
</svg>
