<svg width="36" height="36" viewBox="0 0 36 36" fill="none" xmlns="http://www.w3.org/2000/svg">
<g id="Group 12">
<rect id="Rectangle 71" width="36" height="36" rx="12" fill="#F6F6F6"/>
<path id="Vector" d="M26.6057 14.5801C26.6167 14.7339 26.6167 14.8877 26.6167 15.0414C26.6167 19.7307 23.0476 25.1339 16.5242 25.1339C14.5145 25.1339 12.6476 24.5518 11.0771 23.5415C11.3627 23.5744 11.6372 23.5854 11.9337 23.5854C13.592 23.5854 15.1185 23.0253 16.3375 22.0699C14.7781 22.037 13.4712 21.0156 13.021 19.6099C13.2406 19.6428 13.4602 19.6648 13.6909 19.6648C14.0093 19.6648 14.3279 19.6209 14.6243 19.544C12.999 19.2145 11.78 17.7869 11.78 16.0627V16.0188C12.2522 16.2824 12.8013 16.4471 13.3833 16.469C12.4279 15.8321 11.8019 14.7449 11.8019 13.5149C11.8019 12.856 11.9776 12.252 12.2851 11.7248C14.0313 13.8773 16.656 15.283 19.5992 15.4367C19.5443 15.1732 19.5113 14.8986 19.5113 14.6241C19.5113 12.6693 21.0927 11.0769 23.0585 11.0769C24.0798 11.0769 25.0023 11.5052 25.6503 12.1971C26.4519 12.0433 27.2207 11.7468 27.9016 11.3405C27.638 12.1641 27.0779 12.856 26.3421 13.2952C27.056 13.2184 27.7478 13.0207 28.3848 12.7462C27.9016 13.449 27.2976 14.0749 26.6057 14.5801Z" fill="#2A2F2F"/>
</g>
</svg>
